<svg width="28" height="28" xmlns="http://www.w3.org/2000/svg" xmlns:xlink="http://www.w3.org/1999/xlink" xml:space="preserve" overflow="hidden"><g transform="translate(-528 -350)"><g><g><g><g><path d="M530.25 356.625 530.25 372.375 552.75 372.375 552.75 356.625 530.25 356.625ZM541.894 366.441C541.669 366.666 541.331 366.666 541.106 366.441L532.781 358.312 550.247 358.312 541.894 366.441ZM537.422 364.416 531.938 369.928 531.938 359.044 537.422 364.416ZM538.237 365.203 540.347 367.256C540.684 367.566 541.106 367.734 541.528 367.734 541.95 367.734 542.372 367.566 542.709 367.256L544.819 365.203 550.275 370.688 532.753 370.688 538.237 365.203ZM545.578 364.416 551.062 359.072 551.062 369.9 545.578 364.416Z" fill="#4C39A0" fill-rule="nonzero" fill-opacity="1"/></g></g></g></g></g></svg>