<svg xmlns="http://www.w3.org/2000/svg" width="233" height="225" viewBox="0 0 233 225" version="1.1"><path d="M 22.907 21.320 C 19.984 22.859, 17.701 25.077, 16.127 27.908 L 13.754 32.175 13.768 115.958 C 13.776 162.038, 14.089 200.704, 14.462 201.881 C 16.130 207.136, 13.444 207, 115.301 207 C 178.529 207, 210.694 206.654, 212.707 205.952 C 218.731 203.852, 218.500 207.443, 218.500 116.098 L 218.500 32.500 215.654 27.658 C 210.239 18.445, 217.195 19.047, 115.907 19.022 L 27.315 19 22.907 21.320 M 31 126 L 31 190 116 190 L 201 190 201 126 L 201 62 116 62 L 31 62 31 126 M 59.555 98.250 C 58.148 99.487, 56.715 101.973, 56.369 103.772 C 55.772 106.881, 56.306 107.617, 67.065 118.522 L 78.389 130 67.195 141.346 C 54.828 153.881, 54.085 155.571, 58.589 160.923 C 60.593 163.305, 61.987 164, 64.761 164 C 68.032 164, 69.593 162.763, 82.611 149.856 C 90.457 142.076, 97.409 134.426, 98.060 132.856 C 99.972 128.240, 97.978 125.318, 82.530 110.098 C 66.852 94.651, 64.830 93.608, 59.555 98.250 M 112.465 147.952 C 109.297 149.236, 107.813 151.617, 107.700 155.599 C 107.620 158.426, 108.222 159.794, 110.354 161.628 L 113.112 164 141.633 164 L 170.154 164 173.194 160.960 C 175.736 158.418, 176.133 157.394, 175.618 154.710 C 175.279 152.944, 173.852 150.488, 172.445 149.250 C 169.921 147.029, 169.534 147.001, 142.194 147.063 C 126.962 147.098, 113.584 147.498, 112.465 147.952" stroke="none" fill="#4c39a0" fill-rule="evenodd"/></svg>